<?xml version="1.0" encoding="utf-8"?>
<!-- Generator: Adobe Illustrator 20.0.0, SVG Export Plug-In . SVG Version: 6.00 Build 0)  -->
<svg version="1.1" id="Layer_1" xmlns="http://www.w3.org/2000/svg" xmlns:xlink="http://www.w3.org/1999/xlink" x="0px" y="0px"
	 viewBox="0 0 181.5 74" style="enable-background:new 0 0 181.5 74;" xml:space="preserve">
<style type="text/css">
	.st0{fill:#0092D0;}
	.st1{fill:#08B9F7;}
	.st2{enable-background:new    ;}
	.st3{clip-path:url(#SVGID_2_);}
	.st4{fill:#D2F3FC;}
	.st5{clip-path:url(#SVGID_4_);}
	.st6{clip-path:url(#SVGID_6_);}
	.st7{clip-path:url(#SVGID_8_);}
	.st8{clip-path:url(#SVGID_10_);}
	.st9{fill:none;}
	.st10{clip-path:url(#SVGID_12_);}
	.st11{fill:#FFFFFF;}
	.st12{fill:#85DFFF;}
</style>
<g>
	<polygon class="st0" points="32,37 32,74 0,55.5 0,18.5 	"/>
	<polygon class="st1" points="32,74 64.1,55.5 64.1,18.5 32,37 	"/>
	<g>
		<g>
			<g class="st2">
				<defs>
					<polygon id="SVGID_1_" class="st2" points="4.9,29.8 5,28 26.7,40.5 26.7,42.3 					"/>
				</defs>
				<use xlink:href="#SVGID_1_"  style="overflow:visible;fill:#D2F3FC;"/>
				<clipPath id="SVGID_2_">
					<use xlink:href="#SVGID_1_"  style="overflow:visible;"/>
				</clipPath>
				<g class="st3">
					<polyline class="st4" points="26.7,40.5 5,28 4.9,29.8 26.7,42.3 26.7,40.5 					"/>
				</g>
			</g>
		</g>
		<g>
			<g class="st2">
				<defs>
					<polygon id="SVGID_3_" class="st2" points="4.9,35.3 5,33.5 26.7,46.1 26.7,47.9 					"/>
				</defs>
				<use xlink:href="#SVGID_3_"  style="overflow:visible;fill:#D2F3FC;"/>
				<clipPath id="SVGID_4_">
					<use xlink:href="#SVGID_3_"  style="overflow:visible;"/>
				</clipPath>
				<g class="st5">
					<polyline class="st4" points="26.7,46.1 5,33.5 4.9,35.3 26.7,47.9 26.7,46.1 					"/>
				</g>
			</g>
		</g>
		<g>
			<g class="st2">
				<defs>
					<polygon id="SVGID_5_" class="st2" points="4.9,40.9 5,39.1 26.7,51.6 26.7,53.4 					"/>
				</defs>
				<use xlink:href="#SVGID_5_"  style="overflow:visible;fill:#D2F3FC;"/>
				<clipPath id="SVGID_6_">
					<use xlink:href="#SVGID_5_"  style="overflow:visible;"/>
				</clipPath>
				<g class="st6">
					<polyline class="st4" points="26.7,51.6 5,39.1 4.9,40.9 26.7,53.4 26.7,51.6 					"/>
				</g>
			</g>
		</g>
		<g>
			<g class="st2">
				<defs>
					<polygon id="SVGID_7_" class="st2" points="4.9,46.4 5,44.6 26.7,57.2 26.7,59 					"/>
				</defs>
				<use xlink:href="#SVGID_7_"  style="overflow:visible;fill:#D2F3FC;"/>
				<clipPath id="SVGID_8_">
					<use xlink:href="#SVGID_7_"  style="overflow:visible;"/>
				</clipPath>
				<g class="st7">
					<polyline class="st4" points="26.7,57.2 5,44.6 4.9,46.4 26.7,59 26.7,57.2 					"/>
				</g>
			</g>
		</g>
		<g>
			<g class="st2">
				<defs>
					<polygon id="SVGID_9_" class="st2" points="4.9,52 5,50.2 26.7,62.7 26.7,64.5 					"/>
				</defs>
				<use xlink:href="#SVGID_9_"  style="overflow:visible;fill:#D2F3FC;"/>
				<clipPath id="SVGID_10_">
					<use xlink:href="#SVGID_9_"  style="overflow:visible;"/>
				</clipPath>
				<g class="st8">
					<polyline class="st4" points="26.7,62.7 5,50.2 4.9,52 26.7,64.5 26.7,62.7 					"/>
				</g>
			</g>
		</g>
	</g>
	<line class="st9" x1="32" y1="74" x2="32" y2="37"/>
	<g>
		<g class="st2">
			<defs>
				<polygon id="SVGID_11_" class="st2" points="39.4,64.8 39.4,39.4 58.1,28.5 58.2,53.9 				"/>
			</defs>
			<clipPath id="SVGID_12_">
				<use xlink:href="#SVGID_11_"  style="overflow:visible;"/>
			</clipPath>
			<g class="st10">
				<path class="st11" d="M58.1,28.5c0,0-2.5,2.5-9.4,6.5c-6.9,4-9.4,4.3-9.4,4.3s0.7,18.6,9.5,20C57.5,47.9,58.1,28.5,58.1,28.5"/>
			</g>
		</g>
	</g>
	<line class="st9" x1="64.1" y1="18.5" x2="32" y2="37"/>
	<line class="st9" x1="0" y1="18.5" x2="32" y2="37"/>
	<polygon class="st12" points="32,37 64.1,18.5 32,0 0,18.5 	"/>
</g>
<g>
	<path class="st11" d="M86.7,53.4c-1.1,0-2.2-0.1-3.3-0.3s-2.8-0.5-4.8-0.9v-2.2c1.4,0.4,2.8,0.7,4.1,0.9c1.3,0.2,2.5,0.3,3.6,0.3
		c2.3,0,4.1-0.6,5.3-1.8c1.2-1.2,1.8-2.8,1.8-4.9c0-2-0.5-3.5-1.6-4.6c-1-1.1-2.5-1.9-4.5-2.4c-1-0.3-2-0.6-3-0.9
		c-1-0.3-1.9-0.8-2.7-1.4c-0.8-0.6-1.4-1.5-1.9-2.5c-0.5-1-0.8-2.4-0.8-4.1c0-2.6,0.8-4.6,2.5-6.1c1.7-1.5,3.9-2.3,6.7-2.3
		c0.5,0,0.9,0,1.3,0c0.4,0,0.9,0.1,1.3,0.1c0.5,0.1,1,0.2,1.6,0.3c0.6,0.1,1.3,0.3,2.2,0.5l-0.1,2.2c-1.4-0.4-2.6-0.6-3.6-0.8
		c-1-0.2-2-0.2-2.8-0.2c-2.2,0-4,0.5-5.2,1.6c-1.2,1.1-1.8,2.6-1.8,4.6c0,1.2,0.2,2.2,0.5,2.9c0.4,0.7,0.8,1.4,1.4,1.8
		c0.6,0.5,1.3,0.9,2.1,1.2s1.7,0.6,2.6,0.8c1.3,0.4,2.4,0.8,3.4,1.3c1,0.5,1.8,1.1,2.4,1.8s1.2,1.5,1.5,2.5c0.3,1,0.5,2.1,0.5,3.5
		c0,2.8-0.8,4.9-2.5,6.5C91.6,52.7,89.4,53.4,86.7,53.4z"/>
	<path class="st11" d="M110.8,53.4c-1.3,0-2.7-0.1-4.2-0.3c-1.4-0.2-2.9-0.5-4.3-0.8V5.5h2.1v19c1-1.2,2.3-2.2,3.8-2.9
		c1.5-0.7,3.2-1,5-1c3.6,0,6.4,1.3,8.3,4c1.9,2.6,2.8,6.6,2.8,12c0,2.3-0.3,4.5-0.8,6.5c-0.5,2-1.3,3.8-2.4,5.3
		c-1.1,1.5-2.5,2.7-4.2,3.6C115.2,52.9,113.2,53.3,110.8,53.4z M110.9,51.3c3.6,0,6.4-1.2,8.3-3.7c1.9-2.5,2.9-6.2,2.9-11.1
		c0-9.3-3-13.9-9-13.9c-1,0-2,0.2-3.1,0.5c-1,0.3-2,0.7-2.8,1.3c-0.8,0.5-1.5,1.1-2,1.8c-0.5,0.7-0.8,1.4-0.8,2.1v22.3
		c1.1,0.2,2.3,0.4,3.4,0.5C108.9,51.3,110,51.3,110.9,51.3z"/>
	<path class="st11" d="M141.7,53.3c-3.9,0-6.9-1.4-8.9-4.2c-2-2.8-3-6.8-3-12.2s1-9.4,3-12.2c2-2.8,5-4.2,8.8-4.2s6.8,1.4,8.8,4.2
		c2,2.8,3,6.9,3,12.2s-1,9.4-3,12.2C148.5,51.9,145.6,53.3,141.7,53.3z M141.7,51.2c6.4,0,9.6-4.7,9.6-14.2c0-9.6-3.2-14.4-9.6-14.4
		c-6.4,0-9.7,4.8-9.7,14.4C132.1,46.5,135.3,51.2,141.7,51.2z"/>
	<path class="st11" d="M156,52.4l11.3-16.1l-10.6-14.9v-0.4h2.3l8.1,11.5l1.5,2.2h0.2l1.5-2.2l8-11.5h2.3v0.4L170,36.6l11.2,15.8
		v0.4h-2.3l-8.7-12.4l-1.6-2.2h-0.2l-1.5,2.2l-8.6,12.4H156V52.4z"/>
</g>
</svg>
